How.Do.You.Know.2010.720p.BRRip.x264.Feel-Free


Genre:Comedy | Drama | Romance
Language:English
IMDb:http://www.imdb.com/title/tt1341188/
Source:BluRay.720p.DTS.x264-CHD


Format : MPEG-4
Format profile : Base Media
Codec ID : isom
File size : 2.55 GiB
Duration : 2h 0mn
Overall bit rate : 3 019 Kbps


Video
Format profile : High@L4.1
Format settings, CABAC : Yes
Format settings, ReFrames : 3 frames
Codec ID : avc1
Codec ID/Info : Advanced Video Coding
Duration : 2h 0mn
Bit rate mode : Variable
Bit rate : 2 654 Kbps
Maximum bit rate : 16.1 Mbps
Width : 1 280 pixels
Height : 688 pixels
Display aspect ratio : 1.860
Frame rate mode : Constant
Frame rate : 23.976 fps
Color space : YUV
Chroma subsampling : 4:2:0
Bit depth : 8 bits
Scan type : Progressive
Bits/(Pixel*Frame) : 0.126
Stream size : 2.20 GiB (86%)
Writing library : x264


Audio
ID : 2
Format : AAC
Format/Info : Advanced Audio Codec
Format version : Version 4
Format profile : LC
Format settings, SBR : No
Codec ID : 40
Duration : 2h 0mn
Bit rate mode : Variable
Bit rate : 411 Kbps
Maximum bit rate : 535 Kbps
Channel(s) : 6 channels
Channel positions : Front: L C R, Side: L R, LFE
Sampling rate : 48.0 KHz
Stream size : 355 MiB (14%)


Plot:

After being cut from the USA softball team and feeling a bit past her prime, Lisa finds herself evaluating her life and in the middle of a love triangle, as a corporate guy in crisis competes with her current, baseball-playing beau.


Screens:

 
http://leetleech.org/images/58654093169255464179.jpg
 
http://leetleech.org/images/53349823981609436675.jpg
 
http://leetleech.org/images/75971687102858031505.jpg


ENJOY!